<svg xmlns="http://www.w3.org/2000/svg" width="128" height="128" enable-background="new 0 0 128 128" viewBox="0 0 128 128"><path fill="#2C3E50" d="M26,22c0.1,0,0.5,0.3,0.6,0.6L28,26H15c-0.8,0-2-1-2-2c0-0.8,1-2,2-2H26 M114,39  c-1.3,4.3-9.7,24.5-12.5,31.3c-1.2,2.8-1.9,4.6-2.2,5.2C99,76.4,98.3,77,98,77H52c0,0-0.1,0-0.2,0l0,0l-0.2,0  c-0.2-0.1-0.5-0.3-0.7-0.4L36.4,39H114 M26,18H15c-3.2,0-6,3-6,6c0,3.2,3,6,6,6h13.6l18.7,48.1c0.5,1.3,2.2,2.5,3.4,2.7  c0,0,0.6,0.2,1.3,0.2h46c2.2,0,4.2-1.9,5-4c1.1-2.9,15-35.8,15-38s-1.8-4-4-4H36.1l-5.9-14.1C29.6,19.6,28,18,26,18L26,18z"/><path fill="#3B97D3" d="M49 89c4.4 0 8 3.6 8 8s-3.6 8-8 8-8-3.6-8-8S44.6 89 49 89M49 85c-6.6 0-12 5.4-12 12s5.4 12 12 12 12-5.4 12-12S55.6 85 49 85L49 85zM102 89c4.4 0 8 3.6 8 8s-3.6 8-8 8-8-3.6-8-8S97.6 89 102 89M102 85c-6.6 0-12 5.4-12 12s5.4 12 12 12 12-5.4 12-12S108.6 85 102 85L102 85z"/><circle cx="49" cy="97" r="3" fill="#3B97D3"/><circle cx="102" cy="97" r="3" fill="#3B97D3"/></svg>